<?xml version="1.0" encoding="UTF-8" standalone="no"?>
<!-- Created with Inkscape (http://www.inkscape.org/) -->

<svg
   xmlns:dc="http://purl.org/dc/elements/1.1/"
   xmlns:cc="http://creativecommons.org/ns#"
   xmlns:rdf="http://www.w3.org/1999/02/22-rdf-syntax-ns#"
   xmlns:svg="http://www.w3.org/2000/svg"
   xmlns="http://www.w3.org/2000/svg"
   xmlns:sodipodi="http://sodipodi.sourceforge.net/DTD/sodipodi-0.dtd"
   xmlns:inkscape="http://www.inkscape.org/namespaces/inkscape"
   width="762.81116"
   height="309.17725"
   viewBox="0 0 201.82711 81.803149"
   version="1.1"
   id="svg35744"
   inkscape:version="0.92.2 (5c3e80d, 2017-08-06)"
   sodipodi:docname="Hot Wheels logo 1973 red and yellow.svg">
  <defs
     id="defs35738" />
  <sodipodi:namedview
     id="base"
     pagecolor="#ffffff"
     bordercolor="#666666"
     borderopacity="1.0"
     inkscape:pageopacity="0.0"
     inkscape:pageshadow="2"
     inkscape:zoom="0.98994949"
     inkscape:cx="408.73039"
     inkscape:cy="163.39581"
     inkscape:document-units="mm"
     inkscape:current-layer="g35860"
     showgrid="false"
     inkscape:window-width="1366"
     inkscape:window-height="705"
     inkscape:window-x="-8"
     inkscape:window-y="-8"
     inkscape:window-maximized="1"
     showguides="false"
     inkscape:snap-nodes="true"
     inkscape:guide-bbox="true"
     units="px"
     fit-margin-top="0"
     fit-margin-left="0"
     fit-margin-right="0"
     fit-margin-bottom="0">
    <sodipodi:guide
       position="44.483876,67.334624"
       orientation="0.22162139,-0.97513279"
       id="guide35789"
       inkscape:locked="false" />
    <sodipodi:guide
       position="46.321354,64.428074"
       orientation="0.22162148,-0.97513277"
       id="guide35791"
       inkscape:locked="false" />
  </sodipodi:namedview>
  <metadata
     id="metadata35741">
    <rdf:RDF>
      <cc:Work
         rdf:about="">
        <dc:format>image/svg+xml</dc:format>
        <dc:type
           rdf:resource="http://purl.org/dc/dcmitype/StillImage" />
        <dc:title></dc:title>
      </cc:Work>
    </rdf:RDF>
  </metadata>
  <g
     inkscape:label="Layer 1"
     inkscape:groupmode="layer"
     id="layer1"
     transform="translate(3.1573254,-116.49028)">
    <g
       id="g35860"
       transform="matrix(1.1919781,0,0,1.1919781,38.000902,-5.4361214)"
       style="stroke-width:0.83894157">
      <path
         sodipodi:nodetypes="csssssscsccsscssc"
         inkscape:connector-curvature="0"
         id="path35759"
         d="m -29.466466,136.85829 c 2.585363,1.22432 4.958413,3.41625 8.847572,3.43537 5.255686,0.0258 7.387213,-4.33831 11.378525,-4.2682 4.6605488,0.0819 2.9569387,4.89952 6.1667695,4.95594 2.48628392,0.0437 3.29359712,-2.05057 3.57472985,-4.14268 0.49487689,-3.68273 -1.38368039,-4.36263 -2.83973865,-4.54357 -3.1458743,-0.39093 -6.6576398,3.58955 -13.6975637,2.40542 -13.954816,-2.34723 -19.770376,-15.74139 -18.260714,-21.67651 2.988219,4.17279 6.029867,5.79207 9.106733,5.84079 5.270864,0.0834 7.661727,-1.91349 12.26099,-1.36977 -3.930487,-3.72249 -5.497583,-7.04335 -5.61266,-10.056 7.909885,6.17113 18.7293177,8.38545 30.176216,8.0898 29.19193,-0.75397 53.321229,-16.296897 83.209006,-12.70054 30.475651,3.6671 51.213121,30.15334 33.312341,53.32061 0.62185,-5.34138 -1.15914,-16.04248 -14.71517,-18.68824 C 86.259627,132.15574 49.06399,170.4713 7.7159372,159.87434 -12.757218,154.62734 -22.990497,146.85646 -29.466466,136.85829 Z"
         style="fill:#d70b2d;fill-opacity:1;stroke:none;stroke-width:0.22196995px;stroke-linecap:butt;stroke-linejoin:miter;stroke-opacity:1" />
      <path
         sodipodi:nodetypes="ccsccsccsccsc"
         inkscape:connector-curvature="0"
         id="path35761"
         d="m -9.287616,116.72669 c 8.2614625,2.90926 14.899226,3.28497 20.91384,3.0736 -2.3900326,6.2286 -3.7677918,12.09888 -1.455727,12.65377 2.805517,0.67332 4.602869,-6.36085 3.994788,-13.05467 5.523427,-0.37849 11.707766,-0.90529 18.708867,-2.77292 -4.986862,3.15831 -14.090812,11.98104 -15.430629,22.87427 -0.725176,5.89597 -0.88515,11.30021 3.336682,17.95115 -5.522216,-0.15672 -9.695685,-1.2296 -13.4637018,-2.43884 2.7041848,-5.7142 5.6065228,-14.19278 2.4133981,-14.81022 -3.2561288,-0.62963 -4.6834124,7.94799 -4.8522325,14.20887 -5.45712324,-1.1924 -10.8148741,-2.73066 -15.1422428,-5.17835 6.593298,-1.78675 12.9811943,-7.31066 13.2045388,-13.96245 0.3324381,-9.90088 -10.8000865,-8.32388 -12.2275808,-18.54421 z"
         style="fill:#ffdc45;fill-opacity:1;stroke:none;stroke-width:0.22196995px;stroke-linecap:butt;stroke-linejoin:miter;stroke-opacity:1" />
      <path
         transform="scale(0.26458333)"
         sodipodi:nodetypes="cscscczzzzz"
         inkscape:connector-curvature="0"
         id="path35763"
         d="m 105.82031,479.52344 c -23.53151,-0.17353 -34.43788,34.85523 -35.867185,56.60351 -1.451992,22.0935 3.522626,58.29649 29.294922,58.58789 25.772293,0.29129 34.171813,-29.33643 35.859373,-59.09375 1.68757,-29.75731 -3.84519,-54.74044 -28.1582,-56.06445 -0.37989,-0.0207 -0.75539,-0.0305 -1.12891,-0.0332 z m 1.322,20.49693 c 6.57013,0.36822 4.35115,22.30502 3.08884,36.1977 -1.26231,13.89267 -2.82913,38.95586 -10.10404,38.47495 -7.274922,-0.48091 -4.719008,-25.47743 -3.519688,-38.78091 1.19932,-13.30348 3.964758,-36.25996 10.534888,-35.89174 z"
         style="fill:#ffdc45;fill-opacity:1;stroke:none;stroke-width:0.83894157px;stroke-linecap:butt;stroke-linejoin:miter;stroke-opacity:1" />
      <path
         sodipodi:nodetypes="csscccscssscsscscscssc"
         inkscape:connector-curvature="0"
         id="path35772"
         d="m 45.500563,111.26216 c -3.039201,1.05693 -4.091817,4.5917 -3.973562,6.33316 0.56797,8.36415 9.276792,8.41541 12.767852,14.76259 3.622551,6.58625 1.721764,14.0469 -0.941174,18.34542 5.196815,-1.84268 9.34154,-3.44261 13.396884,-5.3788 -2.24877,-1.22209 -5.582096,-6.69766 -1.63989,-11.93549 -0.707293,4.64559 0.857617,6.84604 2.988069,8.19441 2.77738,1.7578 6.609392,1.69355 8.574203,-0.10091 -2.180105,-1.25286 -2.55322,-2.83844 -2.678427,-4.25969 -0.316368,-3.59118 2.094313,-5.59984 4.312053,-9.83217 2.033086,-3.87994 1.973677,-9.29368 -0.711324,-12.80145 -6.912342,-9.0305 -16.422366,-0.85256 -16.969937,-7.22507 -1.969449,0.61519 -3.627417,4.5877 -0.122171,7.59187 3.64814,3.12664 8.999942,1.05494 11.058277,6.04698 2.348113,5.69482 -1.557974,8.27259 -2.238381,13.02938 -1.12476,-3.93109 1.989858,-7.33049 0.835216,-11.29213 -1.257809,-4.31561 -5.716238,-5.33179 -9.488069,-4.6104 1.559432,1.584 3.2537,3.13521 2.939964,7.08264 -0.409076,5.147 -2.901604,6.00741 -4.209495,10.7576 -0.763969,-3.84149 5.573729,-11.22216 0.668173,-17.03843 -4.682499,-5.55181 -11.036908,-2.81376 -13.756273,-4.90535 -1.050707,-0.80815 -0.939395,-2.08281 -0.811988,-2.76416 z"
         style="fill:#ffdc45;fill-opacity:1;stroke:none;stroke-width:0.22196995px;stroke-linecap:butt;stroke-linejoin:miter;stroke-opacity:1" />
      <path
         style="fill:#ffdc45;fill-opacity:1;stroke:none;stroke-width:0.22196995px;stroke-linecap:butt;stroke-linejoin:miter;stroke-opacity:1"
         d="m 69.260558,108.50816 c 5.65709,-1.20859 11.42723,-2.31034 17.525436,-2.37202 -2.438163,7.59403 -1.694107,11.46358 -0.750092,11.61405 0.793594,0.12649 1.995616,-3.22439 2.074628,-11.62585 3.556591,-0.21754 7.4143,0.0601 10.316249,0.8277 -2.014136,1.81713 -7.217364,6.07555 -7.885043,15.04255 -0.428184,5.75056 1.55336,10.437 3.179422,13.10522 l -8.385577,2.55288 c 2.298473,-12.86282 1.192607,-13.52722 0.332275,-13.51943 -1.688729,0.0153 -2.012274,7.99817 -1.544772,13.77455 l -7.265898,2.74663 c 1.340634,-6.21925 3.824775,-12.92667 3.877782,-18.5857 0.06846,-7.30908 -3.784594,-11.46005 -11.47441,-13.56058 z"
         id="path35774"
         inkscape:connector-curvature="0"
         sodipodi:nodetypes="ccsccsccsccsc" />
      <path
         sodipodi:nodetypes="sccccsssscs"
         inkscape:connector-curvature="0"
         id="path35776"
         transform="scale(0.26458333)"
         d="m 346.42773,460.37695 c -1.15307,18.61694 3.71953,49.41319 22.14454,49.10743 15.69964,-0.26057 24.73484,-21.35965 22.625,-38.5625 -11.90166,13.63475 -21.6322,12.28317 -23.375,5.12304 -2.02618,-8.32426 7.95551,-23.81273 26.82031,-23.70312 3.82836,-8.23234 14.8494,-43.10258 -8.78345,-45.70424 -21.17505,-2.33109 -37.82135,27.74438 -39.4314,53.73939 z m 35.14467,-33.36766 c 3.44394,0.91663 2.08203,8.57869 -0.93944,11.33046 -2.60069,2.36854 -5.64936,4.48738 -8.35562,6.26572 1.20808,-9.59287 5.90567,-18.49829 9.29506,-17.59618 z"
         style="fill:#ffdc45;fill-opacity:1;stroke:none;stroke-width:0.83894157px;stroke-linecap:butt;stroke-linejoin:miter;stroke-opacity:1" />
      <path
         style="fill:#ffdc45;fill-opacity:1;stroke:none;stroke-width:0.22196995px;stroke-linecap:butt;stroke-linejoin:miter;stroke-opacity:1"
         d="m 104.64655,122.34614 c -0.84084,4.03764 -1.64877,11.04067 3.51237,11.52533 3.78569,0.3555 6.80587,-5.0927 6.37277,-8.72938 -2.53134,2.68069 -4.89044,2.77938 -5.27578,1.19621 -0.44801,-1.84057 1.75904,-4.49682 5.82999,-4.77327 0.81308,-2.05411 2.24109,-9.77762 -2.27213,-10.32972 -3.64811,-0.44627 -6.99182,5.46666 -8.16722,11.11083 z m 7.46253,-6.39669 c 0.67898,0.15813 0.37684,2.10589 -0.29124,2.74389 -0.57504,0.54915 -1.24913,0.97358 -1.84751,1.38589 0.26712,-2.22412 1.43221,-4.29433 2.13875,-4.12978 z"
         id="path35781"
         inkscape:connector-curvature="0"
         sodipodi:nodetypes="sscscsssscs" />
      <path
         sodipodi:nodetypes="ccsscsccc"
         inkscape:connector-curvature="0"
         id="path35783"
         d="m 116.59992,113.72305 c 2.20279,0.98353 5.24548,3.26447 7.62397,6.00373 -1.91866,0.24574 -3.52922,2.28728 -4.43552,4.45899 -1.0325,2.47413 -1.77542,4.65496 -0.67863,5.01641 0.81147,0.26742 2.07868,-0.92791 1.75626,-2.75584 1.55961,0.38337 0.99685,2.70893 0.53355,4.1864 -0.54822,1.74827 -1.32676,3.48223 -2.24256,5.20765 -2.45278,-0.91546 -4.93171,-1.79823 -7.73467,-2.27597 2.69168,-1.54323 6.67475,-10.06148 5.1776,-19.84137 z"
         style="fill:#ffdc45;fill-opacity:1;stroke:none;stroke-width:0.22196995px;stroke-linecap:butt;stroke-linejoin:miter;stroke-opacity:1" />
      <path
         sodipodi:nodetypes="cssscsssc"
         inkscape:connector-curvature="0"
         id="path35785"
         d="m 129.55134,130.26524 c 0.25501,-4.73286 -2.05487,-7.0061 -4.56707,-6.5521 -2.61753,0.47303 -3.072,4.10987 -2.02829,6.21701 1.00866,2.03637 2.02362,3.55399 1.34891,4.09934 -0.84274,0.68116 -2.13555,-1.11483 -2.57293,-2.29959 0,0 -2.87627,4.66323 1.40999,6.89806 1.54626,0.80621 4.2528,0.57777 5.08647,-1.92328 1.28983,-3.86951 -2.65768,-6.0731 -1.23653,-7.65402 0.92511,-1.02911 2.55945,1.21458 2.55945,1.21458 z"
         style="fill:#ffdc45;fill-opacity:1;stroke:none;stroke-width:0.22196995px;stroke-linecap:butt;stroke-linejoin:miter;stroke-opacity:1" />
      <path
         sodipodi:nodetypes="ccssscccsccsc"
         inkscape:connector-curvature="0"
         id="path35787"
         transform="scale(0.26458333)"
         d="m 144.58594,466.81445 c -10.95474,0.27774 -23.54974,3.51257 -31.75,5.92383 10.70135,2.51441 19.94849,8.61866 24.94531,21.86719 4.41591,11.70829 2.27123,31.61577 1.17969,49.67383 -1.32066,21.84843 -2.64847,37.65229 11.8789,39.92382 25.04654,3.91635 32.39519,-43.84052 28.58789,-62.09374 -3.74685,6.56458 -7.61123,16.24671 -14.26757,15.6582 -6.82506,-0.60345 -3.86416,-20.02015 -1.93291,-31.6166 l 5.25517,-1.4166 c 9.18933,-2.4771 12.70517,-7.96048 11.46094,-15.03126 -5.73371,1.55286 -11.76939,3.34729 -15.89453,3.61329 0.23402,-9.74428 3.1327,-21.10169 -6.10742,-24.69141 -3.73435,-1.45077 -8.37605,-1.93679 -13.35547,-1.81055 z"
         style="fill:#ffdc45;fill-opacity:1;stroke:none;stroke-width:0.83894157px;stroke-linecap:butt;stroke-linejoin:miter;stroke-opacity:1" />
      <g
         style="stroke-width:6.87062073"
         transform="matrix(0.03230712,0,0,0.03230712,94.396445,138.61007)"
         id="g35818">
        <polygon
           style="fill:#e3000b;stroke-width:6.87062073"
           points="20.55,644.599 61.983,658.251 51.062,614.077 "
           id="polygon35796" />
        <polygon
           style="fill:#e3000b;stroke-width:6.87062073"
           points="42.647,707.018 76.429,709.308 66.139,673.559 "
           id="polygon35798" />
        <polygon
           style="fill:#e3000b;stroke-width:6.87062073"
           points="4.482,584.572 47.016,600.417 35.535,557.339 "
           id="polygon35800" />
        <polygon
           style="fill:#d70b2d;fill-opacity:1;stroke-width:6.87062073"
           points="328.742,29.19 372.354,63.512 388.991,12.245 427.694,51.702 449.445,3.381 483.99,45.694 511.438,0 540.399,46.252 572.765,4.809 594.853,54.219 634.857,15.739 650.281,69.319 693.895,36.521 703.41,90.731 749.539,64.602 751.393,120.803 802.128,98.944 797.521,156.214 852.423,142.003 837.987,194.928 891.34,189.785 872.531,239.632 929.492,241.833 902.598,289.176 956.499,293.308 923.033,336.618 976.405,352.346 940.086,391.814 989.506,415.223 948.949,449.761 995.528,480.484 952.229,505.743 995.415,540.51 947.208,563.139 987.213,604.691 935.513,621.198 968.521,664.821 916.268,676.721 946.77,728.116 888.822,728.004 912.335,778.186 857.447,776.332 874.389,828.684 821.495,817.113 833.291,871.882 778.838,856.131 782.791,908.709 732.262,887.946 731.172,944.903 684.503,915.818 674.324,967.532 630.814,935.289 613.526,986.554 572.988,948.186 553.185,996.833 516.561,954.736 489.228,1000 459.601,952.995 426.156,994.641 404.181,942.938 365.693,983.159 349.188,929.065 304.588,964.463 297.253,908.608 252,936.93 251.674,881.389 199.41,902.496 206.074,847.605 150.309,861.491 165.202,809.556 110.312,816.339 128.567,764.941 72.598,762.211 100.033,711.17 30.4,536.345 0,520.492 46.252,491.201 1.631,456.879 50.836,432.615 9.292,395.217 63.52,378.171 26.468,335.955 81.338,323.81 51.5,277.356 106.268,271.783 81.684,220.846 139.284,222.365 122.657,171.966 179.077,176.672 167.281,124.962 220.174,140.701 216.139,85.279 268.729,107.681 272.559,54.339 320.114,84.069 "
           id="polygon35802" />
        <polygon
           style="fill:#ffffff;stroke-width:6.87062073"
           points="276.267,661.865 244.462,670.495 203.997,519.525 203.344,519.741 190.671,684.919 163.236,692.255 69.644,555.803 69.103,555.803 109.536,706.691 77.631,715.208 25.268,519.962 72.383,507.278 166.292,646.013 166.935,645.779 177.224,478.956 223.79,466.499 "
           id="polygon35806" />
        <path
           style="fill:#ffffff;stroke-width:6.87062073"
           inkscape:connector-curvature="0"
           d="m 308.295,443.741 35.76,-9.384 126.163,175.357 -35.86,9.609 -31.918,-46.77 -76.418,20.434 -4.177,56.732 -34.534,9.189 z m 19.908,120.811 58.476,-15.737 -51.376,-76.191 h -0.224 l -0.541,0.212 z"
           id="path35808" />
        <polygon
           style="fill:#ffffff;stroke-width:6.87062073"
           points="437.312,440.794 376.746,457.097 368.771,427.572 523.783,385.803 531.77,415.328 470.868,431.739 515.479,597.461 481.911,606.536 "
           id="polygon35810" />
        <polygon
           style="fill:#ffffff;stroke-width:6.87062073"
           points="564.563,406.698 503.998,422.976 495.91,393.364 651.046,351.82 658.911,381.331 598.021,397.622 642.632,563.351 609.052,572.327 "
           id="polygon35812" />
        <polygon
           style="fill:#ffffff;stroke-width:6.87062073"
           points="851.109,507.271 715.971,543.67 663.495,348.525 796.678,312.442 804.644,341.975 704.816,368.961 718.609,420.146 810.654,395.317 818.09,423.201 726.149,448.009 741.45,505.078 843.011,477.646 "
           id="polygon35814" />
        <polygon
           style="fill:#ffffff;stroke-width:6.87062073"
           points="997.279,468.126 866.197,503.325 813.832,307.971 847.289,299.003 891.878,464.736 989.19,438.607 "
           id="polygon35816" />
      </g>
    </g>
  </g>
</svg>
